<?xml version="1.0" standalone="no"?>
<!DOCTYPE svg PUBLIC "-//W3C//DTD SVG 20010904//EN"
 "http://www.w3.org/TR/2001/REC-SVG-20010904/DTD/svg10.dtd">
<svg version="1.0" xmlns="http://www.w3.org/2000/svg"
 width="415.000000pt" height="415.000000pt" viewBox="0 0 415.000000 415.000000"
 preserveAspectRatio="xMidYMid meet">
<metadata>
Created by potrace 1.14, written by Peter Selinger 2001-2017
</metadata>
<g transform="translate(0.000000,415.000000) scale(0.100000,-0.100000)"
fill="#000000" stroke="none">
<path d="M1964 3853 c-76 -87 -141 -160 -144 -163 -3 -3 -34 -39 -70 -80 -36
-41 -67 -77 -70 -80 -3 -3 -39 -43 -80 -90 -41 -47 -81 -91 -88 -99 -13 -14
-9 -21 48 -82 189 -202 332 -428 435 -689 20 -52 39 -102 41 -110 36 -140 54
-217 59 -247 3 -20 7 -38 9 -40 2 -2 8 29 15 68 14 88 73 270 117 367 19 41
34 76 34 79 0 9 123 218 164 278 52 76 194 250 240 294 31 29 34 36 23 50 -7
9 -28 34 -47 57 -19 22 -44 51 -55 65 -101 121 -461 548 -475 562 -16 17 -23
11 -156 -140z"/>
<path d="M73 3732 c-28 -4 -39 -40 -63 -202 -8 -55 -6 -378 3 -435 3 -16 8
-48 12 -70 57 -348 243 -714 490 -960 245 -245 600 -425 965 -490 167 -29 532
-52 560 -35 10 6 11 60 7 226 -3 121 -8 230 -10 244 -5 23 -12 67 -23 150 -8
63 -52 233 -84 330 -153 457 -480 825 -925 1040 -220 106 -444 170 -684 195
-77 8 -217 12 -248 7z m435 -342 c252 -52 499 -173 683 -336 194 -171 353
-408 453 -677 43 -116 92 -312 104 -421 10 -88 2 -105 -45 -101 -15 2 -57 6
-92 9 -36 3 -110 17 -165 31 -444 109 -792 381 -980 765 -26 52 -47 96 -47 97
0 2 -1 8 -4 15 -41 127 -62 205 -71 273 -3 28 -8 52 -9 55 -8 14 -19 231 -16
304 1 21 25 19 189 -14z"/>
<path d="M3806 3658 c-439 -45 -826 -224 -1116 -517 -180 -181 -298 -368 -401
-630 -27 -70 -74 -220 -85 -272 -12 -61 -45 -258 -49 -294 -14 -140 -17 -217
-17 -352 l0 -152 -212 4 c-116 3 -229 6 -251 9 -22 3 -65 8 -95 11 -30 3 -66
8 -80 10 -52 7 -207 44 -249 59 -24 9 -47 14 -50 10 -3 -3 -6 -75 -6 -159 l0
-154 40 -11 c22 -6 51 -13 65 -16 93 -18 120 -23 155 -28 23 -4 52 -8 65 -11
14 -3 52 -7 87 -10 34 -3 72 -8 85 -11 13 -3 118 -7 233 -9 l210 -3 3 -486 2
-486 55 -1 c71 -1 179 -1 208 0 l22 1 0 501 c0 322 4 503 10 508 6 4 39 16 75
25 322 86 665 261 925 471 80 65 234 217 290 286 169 208 288 445 355 704 16
62 32 135 35 162 4 26 8 55 10 63 25 91 25 544 1 667 -3 11 -8 42 -11 67 -7
45 -8 46 -44 47 -138 4 -205 4 -265 -3z m45 -330 c3 -181 -10 -323 -42 -473
-76 -351 -219 -624 -449 -856 -180 -182 -340 -290 -584 -393 -93 -40 -320
-116 -346 -116 -14 0 -3 367 15 485 71 476 278 841 623 1099 88 66 248 154
362 199 83 33 240 74 310 83 30 3 57 8 59 10 2 2 15 4 28 4 20 0 23 -5 24 -42z"/>
<path d="M3501 3090 c-97 -22 -126 -156 -49 -220 56 -46 150 -30 188 32 24 40
25 79 4 125 -27 55 -78 78 -143 63z"/>
</g>
</svg>
